<!DOCTYPE svg PUBLIC "-//W3C//DTD SVG 1.1//EN" "http://www.w3.org/Graphics/SVG/1.1/DTD/svg11.dtd">
<!-- Uploaded to: SVG Repo, www.svgrepo.com, Transformed by: SVG Repo Mixer Tools -->
<svg width="226px" height="226px" viewBox="-102.4 -102.4 1228.80 1228.80" class="icon" version="1.1" xmlns="http://www.w3.org/2000/svg" fill="#000000" transform="matrix(1, 0, 0, 1, 0, 0)rotate(0)" stroke="#000000" stroke-width="33.792">
<g id="SVGRepo_bgCarrier" stroke-width="0" transform="translate(0,0), scale(1)">
<path transform="translate(-102.4, -102.4), scale(38.4)" d="M16,29.587718616705388C18.830863025954528,29.985257423197144,21.761907221139,28.776831476212106,23.925399437993487,26.908376498966632C25.99501800781538,25.12099354114596,26.76485547657092,22.366472098232627,27.432191857780076,19.71454430570621C28.056968747433654,17.231743660552645,28.22010461258619,14.713266983961821,27.620540314072578,12.224257571089298C26.97845514770975,9.558728574608175,26.14929628159084,6.694995218311666,23.913649556913327,5.1077958249197835C21.68625226409834,3.5264531230630576,18.697646135125268,3.5445367998950674,16,3.9742445731535554C13.593715701660685,4.357541349629479,11.679224365997866,5.907936493486159,9.72806113136969,7.367416734916814C7.80734568433868,8.804121872960586,6.008771786914381,10.291341938797858,4.791614871891866,12.358174908913679C3.286520674147148,14.913949166640554,0.905896425229642,17.7893353626041,1.9573445152401732,20.562735354411515C3.0150063330910655,23.3525252687508,7.032209984017692,23.27545766097704,9.54210702900435,24.88852712961628C11.837868096388467,26.363974934331964,13.29751289610185,29.208207673225253,16,29.587718616705388" fill="#7ed0ec" strokewidth="0"/>
</g>
<g id="SVGRepo_tracerCarrier" stroke-linecap="round" stroke-linejoin="round" stroke="#9fc1f9" stroke-width="98.304">
<path d="M716 190.9v-67.8h-44v67.8H352v-67.8h-44v67.8H92v710h840v-710H716z m-580 44h172v69.2h44v-69.2h320v69.2h44v-69.2h172v151.3H136V234.9z m752 622H136V402.2h752v454.7z" fill="#39393A"/>
<path d="M319 565.7m-33 0a33 33 0 1 0 66 0 33 33 0 1 0-66 0Z" fill="#24b5fb"/>
<path d="M510 565.7m-33 0a33 33 0 1 0 66 0 33 33 0 1 0-66 0Z" fill="#24b5fb"/>
<path d="M701.1 565.7m-33 0a33 33 0 1 0 66 0 33 33 0 1 0-66 0Z" fill="#24b5fb"/>
<path d="M319 693.4m-33 0a33 33 0 1 0 66 0 33 33 0 1 0-66 0Z" fill="#24b5fb"/>
<path d="M510 693.4m-33 0a33 33 0 1 0 66 0 33 33 0 1 0-66 0Z" fill="#24b5fb"/>
<path d="M701.1 693.4m-33 0a33 33 0 1 0 66 0 33 33 0 1 0-66 0Z" fill="#24b5fb"/>
</g>
<g id="SVGRepo_iconCarrier">
<path d="M716 190.9v-67.8h-44v67.8H352v-67.8h-44v67.8H92v710h840v-710H716z m-580 44h172v69.2h44v-69.2h320v69.2h44v-69.2h172v151.3H136V234.9z m752 622H136V402.2h752v454.7z" fill="#39393A"/>
<path d="M319 565.7m-33 0a33 33 0 1 0 66 0 33 33 0 1 0-66 0Z" fill="#24b5fb"/>
<path d="M510 565.7m-33 0a33 33 0 1 0 66 0 33 33 0 1 0-66 0Z" fill="#24b5fb"/>
<path d="M701.1 565.7m-33 0a33 33 0 1 0 66 0 33 33 0 1 0-66 0Z" fill="#24b5fb"/>
<path d="M319 693.4m-33 0a33 33 0 1 0 66 0 33 33 0 1 0-66 0Z" fill="#24b5fb"/>
<path d="M510 693.4m-33 0a33 33 0 1 0 66 0 33 33 0 1 0-66 0Z" fill="#24b5fb"/>
<path d="M701.1 693.4m-33 0a33 33 0 1 0 66 0 33 33 0 1 0-66 0Z" fill="#24b5fb"/>
</g>
</svg>